<mxfile host="65bd71144e">
    <diagram id="wYqT8Si3l1c4VjrAS-H8" name="Page-1">
        <mxGraphModel dx="1289" dy="1494" grid="1" gridSize="10" guides="1" tooltips="1" connect="1" arrows="1" fold="1" page="1" pageScale="1" pageWidth="850" pageHeight="1100" math="0" shadow="0">
            <root>
                <mxCell id="0"/>
                <mxCell id="1" parent="0"/>
                <mxCell id="6" value="&lt;h1&gt;Flow Control&lt;/h1&gt;&lt;p&gt;Much of programming consists of telling the computer to follow of series of steps.&amp;nbsp; Sometimes a decision must be made before know which step to take next.&lt;/p&gt;&lt;p&gt;Let's take a real world example.&amp;nbsp; (A real world example for me anyway.)&lt;/p&gt;" style="text;html=1;strokeColor=none;fillColor=none;spacing=5;spacingTop=-20;whiteSpace=wrap;overflow=hidden;rounded=0;labelBorderColor=default;fontSize=17;" parent="1" vertex="1">
                    <mxGeometry x="540" y="20" width="190" height="400" as="geometry"/>
                </mxCell>
                <mxCell id="7" value="&lt;h1&gt;Mom, how do I do my laundry?&lt;/h1&gt;" style="text;html=1;strokeColor=none;fillColor=none;spacing=5;spacingTop=-20;whiteSpace=wrap;overflow=hidden;rounded=0;labelBorderColor=none;fontSize=17;" parent="1" vertex="1">
                    <mxGeometry x="10" width="530" height="70" as="geometry"/>
                </mxCell>
                <mxCell id="10" value="" style="edgeStyle=none;html=1;fontSize=17;" parent="1" source="8" target="9" edge="1">
                    <mxGeometry relative="1" as="geometry"/>
                </mxCell>
                <mxCell id="8" value="Sort laundry" style="shape=process;whiteSpace=wrap;html=1;backgroundOutline=1;labelBorderColor=none;fontSize=17;" parent="1" vertex="1">
                    <mxGeometry x="220" y="100" width="120" height="70" as="geometry"/>
                </mxCell>
                <mxCell id="13" value="" style="edgeStyle=none;html=1;fontSize=17;entryX=0.5;entryY=0;entryDx=0;entryDy=0;" parent="1" source="9" target="11" edge="1">
                    <mxGeometry relative="1" as="geometry"/>
                </mxCell>
                <mxCell id="9" value="Wash in washing machine" style="shape=process;whiteSpace=wrap;html=1;backgroundOutline=1;labelBorderColor=none;fontSize=17;" parent="1" vertex="1">
                    <mxGeometry x="120" y="190" width="320" height="60" as="geometry"/>
                </mxCell>
                <mxCell id="16" value="" style="edgeStyle=none;html=1;fontSize=17;entryX=0.5;entryY=0;entryDx=0;entryDy=0;exitX=0.5;exitY=1;exitDx=0;exitDy=0;" parent="1" source="11" target="14" edge="1">
                    <mxGeometry relative="1" as="geometry">
                        <mxPoint x="50" y="355" as="targetPoint"/>
                        <Array as="points">
                            <mxPoint x="280" y="400"/>
                        </Array>
                    </mxGeometry>
                </mxCell>
                <mxCell id="28" style="edgeStyle=none;html=1;exitX=0.5;exitY=1;exitDx=0;exitDy=0;entryX=0.5;entryY=0;entryDx=0;entryDy=0;" edge="1" parent="1" source="11" target="27">
                    <mxGeometry relative="1" as="geometry">
                        <Array as="points">
                            <mxPoint x="280" y="400"/>
                        </Array>
                    </mxGeometry>
                </mxCell>
                <mxCell id="11" value="What type of clothing?" style="rhombus;whiteSpace=wrap;html=1;labelBorderColor=none;fontSize=17;" parent="1" vertex="1">
                    <mxGeometry x="167.5" y="270" width="225" height="100" as="geometry"/>
                </mxCell>
                <mxCell id="18" value="" style="edgeStyle=none;html=1;fontSize=17;" parent="1" source="14" target="17" edge="1">
                    <mxGeometry relative="1" as="geometry"/>
                </mxCell>
                <mxCell id="25" value="colored?" style="edgeLabel;html=1;align=center;verticalAlign=middle;resizable=0;points=[];fontSize=17;" parent="18" vertex="1" connectable="0">
                    <mxGeometry x="-0.1143" relative="1" as="geometry">
                        <mxPoint as="offset"/>
                    </mxGeometry>
                </mxCell>
                <mxCell id="22" value="white?" style="edgeStyle=none;html=1;fontSize=17;" parent="1" source="14" target="21" edge="1">
                    <mxGeometry relative="1" as="geometry"/>
                </mxCell>
                <mxCell id="14" value="Towels" style="whiteSpace=wrap;html=1;aspect=fixed;labelBorderColor=none;fontSize=17;" parent="1" vertex="1">
                    <mxGeometry x="200" y="420" width="80" height="80" as="geometry"/>
                </mxCell>
                <mxCell id="17" value="Wash in Hot" style="whiteSpace=wrap;html=1;aspect=fixed;labelBorderColor=none;fontSize=17;" parent="1" vertex="1">
                    <mxGeometry x="200" y="580" width="80" height="80" as="geometry"/>
                </mxCell>
                <mxCell id="24" value="" style="edgeStyle=none;html=1;fontSize=17;entryX=0;entryY=0.5;entryDx=0;entryDy=0;" parent="1" source="21" target="17" edge="1">
                    <mxGeometry relative="1" as="geometry">
                        <mxPoint x="260" y="550" as="targetPoint"/>
                        <Array as="points"/>
                    </mxGeometry>
                </mxCell>
                <mxCell id="21" value="Add bleach" style="whiteSpace=wrap;html=1;aspect=fixed;labelBorderColor=none;fontSize=17;" parent="1" vertex="1">
                    <mxGeometry x="40" y="500" width="80" height="80" as="geometry"/>
                </mxCell>
                <mxCell id="30" style="edgeStyle=none;html=1;exitX=0.5;exitY=1;exitDx=0;exitDy=0;entryX=0.5;entryY=0;entryDx=0;entryDy=0;" edge="1" parent="1" source="27" target="29">
                    <mxGeometry relative="1" as="geometry"/>
                </mxCell>
                <mxCell id="27" value="Uniform" style="whiteSpace=wrap;html=1;aspect=fixed;labelBorderColor=none;fontSize=17;" vertex="1" parent="1">
                    <mxGeometry x="370" y="420" width="80" height="80" as="geometry"/>
                </mxCell>
                <mxCell id="29" value="Wash in Cool" style="whiteSpace=wrap;html=1;aspect=fixed;labelBorderColor=none;fontSize=17;" vertex="1" parent="1">
                    <mxGeometry x="370" y="580" width="80" height="80" as="geometry"/>
                </mxCell>
            </root>
        </mxGraphModel>
    </diagram>
</mxfile>